<svg width="800px" height="800px" viewBox="-3.96 0 20.024 20.024" xmlns="http://www.w3.org/2000/svg">
  <g id="temperature" transform="translate(-6 -2)">
    <path id="secondary" fill="#1B9AAA" d="M14,11.41V5a2,2,0,1,0-4,0v6.41a5,5,0,1,0,4,0ZM12,18a2,2,0,1,1,2-2A2,2,0,0,1,12,18Z"/>
    <path id="primary" d="M14,16a2,2,0,1,1-2-2A2,2,0,0,1,14,16ZM7,16a5,5,0,1,0,7-4.59V5a2,2,0,1,0-4,0v6.41A5,5,0,0,0,7,16Z" fill="none" stroke="#DDDBCB" stroke-linecap="round" stroke-linejoin="round" stroke-width="2"/>
    <circle cx="12" cy="16" r="2.1" fill="#1B9AAA" stroke="#1B9AAA" stroke-width="2" />
  </g>
</svg>