<svg width="800px" height="800px" viewBox="0 -2 20.004 20.004" xmlns="http://www.w3.org/2000/svg">
  <g id="water-cloud" transform="translate(-1.965 -4.004)">
    <path id="secondary" fill="#1B9AAA" d="M14,17a2,2,0,0,1-4,0c0-1.92,2-4,2-4S14,15.08,14,17Z"/>
    <path id="primary" d="M14,17a2,2,0,0,1-4,0c0-1.92,2-4,2-4S14,15.08,14,17Z" fill="none" stroke="#DDDBCB" stroke-linecap="round" stroke-linejoin="round" stroke-width="2"/>
    <path id="primary-2" data-name="primary" d="M18,16.87a4,4,0,0,0-.32-7.8,6,6,0,0,0-11.6,1A3.49,3.49,0,0,0,6,17" fill="none" stroke="#DDDBCB" stroke-linecap="round" stroke-linejoin="round" stroke-width="2"/>
  </g>
</svg>