<svg width="800px" height="800px" viewBox="-3 0 20 20" xmlns="http://www.w3.org/2000/svg">
  <g id="moon-alt-1" transform="translate(-4.998 -2)">
    <path id="secondary" fill="#1B9AAA" d="M18,20.29a8.26,8.26,0,0,1-3.36.71A8.83,8.83,0,0,1,6,12a8.83,8.83,0,0,1,8.64-9A8.26,8.26,0,0,1,18,3.71,9,9,0,0,0,12.72,12,9,9,0,0,0,18,20.29Z"/>
    <path id="primary" d="M18,20.29a8.26,8.26,0,0,1-3.36.71A8.83,8.83,0,0,1,6,12a8.83,8.83,0,0,1,8.64-9A8.26,8.26,0,0,1,18,3.71,9,9,0,0,0,12.72,12,9,9,0,0,0,18,20.29Z" fill="none" stroke="#DDDBCB" stroke-linecap="round" stroke-linejoin="round" stroke-width="2"/>
  </g>
</svg>